<mxfile host="app.diagrams.net" modified="2023-09-20T08:37:43.583Z" agent="Mozilla/5.0 (Windows NT 10.0; Win64; x64) AppleWebKit/537.36 (KHTML, like Gecko) Chrome/116.0.0.0 Safari/537.36" version="21.7.5" etag="3-F6oSK3kIbxYiROO04M" type="github">
  <diagram name="Page-1" id="DtY0PwIHXPRVynIjrBb2">
    <mxGraphModel>
      <root>
        <mxCell id="0" />
        <mxCell id="1" parent="0" />
      </root>
    </mxGraphModel>
  </diagram>
</mxfile>
